# xmcd
#
# Track frame offsets:
#	150
#	10605
#	23660
#	35417
#	46682
#	60817
#	71830
#	87190
#	99112
#	111170
#	122365
#	133870
#	147480
#	161775
#	174830
#	188167
#	201047
#	211367
#	222310
#	233057
#	244210
#	254017
#	266057
#	278830
#
# Disc length: 3910 seconds
#
# Revision: 1
# Processed by: cddbd v1.5.2PL0 Copyright (c) Steve Scherf et al.
# Submitted via: audiograbber 1.83.01
#
DISCID=4f0f4418
DTITLE=REGINALDO ROSSI - DOSE DUPLA
DYEAR=1900
DGENRE=BREGA
TTITLE0=MEXERICO DOS QUADRADOS
TTITLE1=COMPLEXO DE CACHORRO
TTITLE2=NO CLARO OU NO ESCURO
TTITLE3=VI VOCÊ COM UM NAMORADO
TTITLE4=LONGE DE MIM
TTITLE5=O BICÃO
TTITLE6=FESTA DOS PÃES
TTITLE7=O SOMBRA
TTITLE8=O VALENTÃO
TTITLE9=TODOS NÓS SOMOS COVARDES
TTITLE10=JAMAIS FAREI VOCÊ SOFRER
TTITLE11=O AMOR EM SEUS OLHOS
TTITLE12=PARA DE CHORAR
TTITLE13=O MELHOR DE MIM
TTITLE14=MENINO CHATO
TTITLE15=MAIOR QUE DEUS
TTITLE16=O PAPA FIGO
TTITLE17=MANHÃ DE SOL
TTITLE18=O PÃO
TTITLE19=NO JARDIM
TTITLE20=O TREM QUE PARTE PARA O ALÉM
TTITLE21=ROMA E AMOR
TTITLE22=SEM VOCÊ NÃO VALHO NADA
TTITLE23=TE QUERO, TE ADORO, TE AMO
EXTD=
EXTT0=
EXTT1=
EXTT2=
EXTT3=
EXTT4=
EXTT5=
EXTT6=
EXTT7=
EXTT8=
EXTT9=
EXTT10=
EXTT11=
EXTT12=
EXTT13=
EXTT14=
EXTT15=
EXTT16=
EXTT17=
EXTT18=
EXTT19=
EXTT20=
EXTT21=
EXTT22=
EXTT23=
PLAYORDER=
